<svg xmlns="http://www.w3.org/2000/svg" width="51" height="51" viewBox="0 0 51 51">
  <g id="Group_52811" data-name="Group 52811" transform="translate(-502 -1622.817)">
    <g id="Group_51610" data-name="Group 51610" transform="translate(502.457 1622.816)">
      <circle id="Ellipse_983" data-name="Ellipse 983" cx="25.5" cy="25.5" r="25.5" transform="translate(-0.457 0)" fill="rgba(255,255,255,0.31)"/>
    </g>
    <g id="Instagram-Logo.wine" transform="translate(509.438 1639.627)">
      <path id="Path_53907" data-name="Path 53907" d="M26.065,17c-2.462,0-2.771.011-3.737.055a6.652,6.652,0,0,0-2.2.421,4.636,4.636,0,0,0-2.652,2.651,6.621,6.621,0,0,0-.421,2.2C17.011,23.293,17,23.6,17,26.064s.011,2.77.055,3.736a6.661,6.661,0,0,0,.421,2.2,4.638,4.638,0,0,0,2.65,2.652,6.657,6.657,0,0,0,2.2.421c.967.044,1.276.055,3.737.055s2.77-.011,3.737-.055a6.661,6.661,0,0,0,2.2-.421A4.644,4.644,0,0,0,34.652,32a6.718,6.718,0,0,0,.421-2.2c.043-.967.055-1.275.055-3.737s-.011-2.771-.055-3.737a6.715,6.715,0,0,0-.421-2.2A4.637,4.637,0,0,0,32,17.476a6.672,6.672,0,0,0-2.2-.421c-.967-.044-1.275-.055-3.737-.055Zm-.813,1.633h.813c2.42,0,2.707.009,3.663.052A5.018,5.018,0,0,1,31.41,19a3,3,0,0,1,1.72,1.72,5.008,5.008,0,0,1,.312,1.683c.043.956.053,1.243.053,3.662s-.009,2.706-.053,3.662a5.013,5.013,0,0,1-.312,1.683,3.006,3.006,0,0,1-1.72,1.719,5,5,0,0,1-1.683.312c-.956.043-1.243.053-3.663.053s-2.707-.009-3.663-.053a5.028,5.028,0,0,1-1.683-.313A3,3,0,0,1,19,31.405a5.008,5.008,0,0,1-.312-1.683c-.043-.956-.052-1.243-.052-3.663s.009-2.706.052-3.661A5.019,5.019,0,0,1,19,20.715a3,3,0,0,1,1.721-1.721,5.007,5.007,0,0,1,1.683-.313c.836-.038,1.16-.049,2.85-.051ZM30.9,20.138a1.088,1.088,0,1,0,1.088,1.088A1.088,1.088,0,0,0,30.9,20.138Zm-4.838,1.271a4.654,4.654,0,1,0,4.654,4.655,4.655,4.655,0,0,0-4.654-4.655Zm0,1.633a3.021,3.021,0,1,1-3.021,3.021A3.021,3.021,0,0,1,26.065,23.043Z" transform="translate(-8 -18)" fill="#fff" stroke="#fff" stroke-width="0.75"/>
    </g>
  </g>
</svg>
