<svg xmlns="http://www.w3.org/2000/svg" width="51" height="51" viewBox="0 0 51 51">
  <g id="Group_52809" data-name="Group 52809" transform="translate(-343.999 -1622.817)">
    <g id="Group_51658" data-name="Group 51658" transform="translate(343.514 1622.816)">
      <circle id="Ellipse_981" data-name="Ellipse 981" cx="25.5" cy="25.5" r="25.5" transform="translate(0.486 0)" fill="rgba(255,255,255,0.31)"/>
    </g>
    <path id="icons8-twitter" d="M26.951,11a8.717,8.717,0,0,1-2.472.676A4.3,4.3,0,0,0,26.371,9.31a8.631,8.631,0,0,1-2.731,1.034,4.288,4.288,0,0,0-7.321,3.888,12.251,12.251,0,0,1-8.86-4.455,4.208,4.208,0,0,0-.582,2.145,4.251,4.251,0,0,0,1.912,3.548,4.377,4.377,0,0,1-1.949-.532v.05a4.274,4.274,0,0,0,3.447,4.179,4.275,4.275,0,0,1-1.13.153,4.567,4.567,0,0,1-.81-.079,4.307,4.307,0,0,0,4.015,2.96,8.687,8.687,0,0,1-5.339,1.824A8.5,8.5,0,0,1,6,23.966a12.285,12.285,0,0,0,6.591,1.912A12.093,12.093,0,0,0,24.82,13.753c0-.184-.006-.368-.015-.55A8.457,8.457,0,0,0,26.951,11" transform="translate(354.404 1630.877)" fill="#fff"/>
  </g>
</svg>
